<svg xmlns="http://www.w3.org/2000/svg" class="icon" viewBox="0 0 1024 1280" version="1.1" x="0px" y="0px"><path fill="#000000" d="M760.96 712.96H372.48c-39.68 0-74.24-28.16-84.48-69.12L200.32 271.36H120.96c-17.92 0-32-14.08-32-32s14.08-32 32-32h104.96c14.72 0 27.52 10.24 31.36 24.96l93.44 396.8c3.2 11.52 12.16 19.84 22.4 19.84h387.84c10.24 0 19.2-8.32 22.4-19.84l53.76-251.52H436.48c-17.92 0-32-14.08-32-32s14.08-32 32-32h439.68c9.6 0 18.56 4.48 24.96 12.16 5.76 7.68 8.32 17.28 6.4 26.88l-62.08 290.56v0.64c-10.24 40.32-44.8 69.12-84.48 69.12z"/><path fill="#000000" d="M417.28 821.12m-58.24 0a58.24 58.24 0 1 0 116.48 0 58.24 58.24 0 1 0-116.48 0Z"/><path fill="#000000" d="M730.88 821.12m-58.24 0a58.24 58.24 0 1 0 116.48 0 58.24 58.24 0 1 0-116.48 0Z"/></svg>